<svg xmlns="http://www.w3.org/2000/svg" xmlns:xlink="http://www.w3.org/1999/xlink"><polygon points="0,200 0,100 1,99 2,100 3,101 4,102 5,101 6,102 7,103 8,102 9,101 10,100 11,99 12,98 13,97 14,98 15,99 16,100 17,99 18,98 19,99 20,100 21,101 22,102 23,101 24,102 25,103 26,104 27,105 28,104 29,105 30,104 31,103 32,104 33,105 34,104 35,103 36,102 37,101 38,100 39,99 40,100 41,101 42,102 43,101 44,102 45,103 46,102 47,101 48,100 49,99 50,98 51,97 52,98 53,99 54,98 55,97 56,98 57,97 58,98 59,97 60,96 61,95 62,96 63,95 64,94 65,95 66,94 67,95 68,96 69,95 70,96 71,95 72,96 73,95 74,94 75,93 76,92 77,91 78,90 79,89 80,88 81,87 82,88 83,89 84,90 85,89 86,88 87,89 88,90 89,89 90,90 91,91 92,92 93,93 94,92 95,91 96,90 97,89 98,90 99,89 100,88 101,87 102,86 103,87 104,88 105,87 106,88 107,89 108,88 109,87 110,88 111,87 112,88 113,89 114,88 115,89 116,90 117,89 118,88 119,89 120,90 121,91 122,92 123,93 124,92 125,93 126,92 127,91 128,92 129,91 130,92 131,93 132,94 133,95 134,96 135,97 136,96 137,97 138,98 139,97 140,96 141,97 142,98 143,97 144,98 145,99 146,100 147,99 148,98 149,99 150,100 151,101 152,102 153,103 154,102 155,101 156,102 157,103 158,102 159,101 160,100 161,101 162,100 163,101 164,102 165,101 166,100 167,99 168,100 169,101 170,102 171,101 172,102 173,103 174,102 175,101 176,102 177,101 178,100 179,99 180,100 181,99 182,100 183,99 184,98 185,99 186,100 187,99 188,100 189,101 190,100 191,99 192,100 193,99 194,98 195,99 196,100 197,101 198,100 199,99 200,100 201,99 202,100 203,99 204,100 205,101 206,100 207,101 208,102 209,103 210,102 211,101 212,100 213,101 214,100 215,99 216,100 217,101 218,100 219,99 220,98 221,99 222,100 223,101 224,102 225,101 226,102 227,103 228,104 229,103 230,102 231,103 232,104 233,103 234,104 235,103 236,102 237,101 238,102 239,103 240,102 241,103 242,102 243,103 244,104 245,105 246,104 247,105 248,104 249,103 250,104 251,105 252,104 253,103 254,102 255,101 256,100 257,101 258,100 259,99 260,98 261,97 262,96 263,95 264,94 265,95 266,94 267,95 268,96 269,95 270,96 271,95 272,96 273,97 274,96 275,97 276,98 277,97 278,98 279,97 280,96 281,95 282,96 283,97 284,98 285,97 286,98 287,99 288,98 289,99 290,100 291,101 292,102 293,101 294,102 295,103 296,102 297,103 298,102 299,101 300,100 301,101 302,102 303,101 304,100 305,101 306,100 307,99 308,100 309,99 310,100 311,99 312,100 313,99 314,100 315,99 316,100 317,101 318,100 319,99 320,98 321,99 322,100 323,99 324,98 325,97 326,96 327,97 328,98 329,99 330,100 331,101 332,100 333,101 334,100 335,101 336,102 337,103 338,104 339,105 340,106 341,107 342,106 343,107 344,108 345,109 346,110 347,111 348,110 349,111 350,112 351,111 352,112 353,111 354,110 355,111 356,112 357,111 358,112 359,111 360,110 361,109 362,110 363,109 364,108 365,107 366,106 367,107 368,108 369,109 370,108 371,107 372,108 373,109 374,110 375,111 376,112 377,111 378,110 379,111 380,112 381,111 382,112 383,111 384,110 385,109 386,108 387,107 388,106 389,107 390,106 391,105 392,106 393,105 394,104 395,103 396,102 397,101 398,102 399,103 400,200 " style="fill:rgb(115,32,236);stroke:rgb(15,0,136)"></polygon><polygon points="0,200 0,100 1,101 2,102 3,101 4,100 5,99 6,100 7,99 8,98 9,99 10,98 11,99 12,100 13,101 14,100 15,99 16,98 17,97 18,98 19,99 20,98 21,97 22,98 23,97 24,96 25,95 26,94 27,95 28,96 29,95 30,94 31,95 32,96 33,95 34,94 35,93 36,92 37,93 38,92 39,93 40,92 41,93 42,94 43,93 44,92 45,93 46,92 47,91 48,92 49,93 50,94 51,95 52,94 53,93 54,94 55,95 56,94 57,93 58,92 59,93 60,92 61,91 62,90 63,89 64,88 65,89 66,90 67,91 68,90 69,91 70,92 71,93 72,92 73,91 74,92 75,93 76,94 77,93 78,92 79,93 80,92 81,93 82,92 83,93 84,92 85,91 86,90 87,89 88,88 89,89 90,90 91,89 92,88 93,87 94,86 95,85 96,86 97,85 98,86 99,85 100,86 101,85 102,86 103,87 104,88 105,87 106,86 107,87 108,88 109,89 110,90 111,91 112,90 113,89 114,90 115,91 116,92 117,93 118,92 119,93 120,94 121,95 122,94 123,95 124,96 125,95 126,96 127,97 128,98 129,99 130,100 131,99 132,98 133,97 134,96 135,97 136,96 137,97 138,96 139,97 140,98 141,97 142,98 143,97 144,96 145,95 146,94 147,95 148,94 149,93 150,94 151,93 152,92 153,93 154,94 155,93 156,94 157,93 158,92 159,93 160,94 161,95 162,94 163,93 164,94 165,93 166,94 167,93 168,94 169,93 170,94 171,95 172,96 173,95 174,94 175,95 176,94 177,95 178,94 179,93 180,94 181,95 182,94 183,93 184,94 185,95 186,96 187,97 188,96 189,97 190,98 191,99 192,100 193,101 194,100 195,101 196,100 197,99 198,98 199,97 200,96 201,95 202,96 203,95 204,96 205,97 206,96 207,95 208,94 209,93 210,94 211,95 212,94 213,93 214,94 215,93 216,92 217,91 218,92 219,93 220,92 221,91 222,90 223,89 224,88 225,89 226,90 227,89 228,88 229,87 230,88 231,89 232,88 233,87 234,88 235,89 236,88 237,89 238,90 239,89 240,90 241,91 242,92 243,93 244,92 245,91 246,92 247,91 248,90 249,91 250,92 251,93 252,94 253,95 254,94 255,93 256,94 257,95 258,94 259,93 260,94 261,95 262,96 263,95 264,94 265,93 266,94 267,93 268,94 269,93 270,94 271,95 272,94 273,95 274,94 275,93 276,92 277,91 278,92 279,91 280,90 281,89 282,90 283,91 284,90 285,89 286,88 287,89 288,88 289,87 290,86 291,87 292,88 293,87 294,88 295,87 296,86 297,85 298,86 299,87 300,86 301,85 302,86 303,87 304,88 305,89 306,88 307,87 308,86 309,85 310,86 311,87 312,86 313,87 314,86 315,87 316,88 317,87 318,86 319,85 320,86 321,87 322,88 323,87 324,86 325,87 326,88 327,87 328,86 329,85 330,84 331,83 332,84 333,85 334,86 335,85 336,84 337,85 338,86 339,85 340,84 341,83 342,84 343,85 344,86 345,87 346,86 347,85 348,84 349,83 350,82 351,81 352,80 353,79 354,80 355,81 356,80 357,79 358,80 359,79 360,78 361,79 362,80 363,79 364,80 365,79 366,80 367,79 368,78 369,79 370,78 371,77 372,78 373,79 374,78 375,77 376,78 377,79 378,78 379,79 380,78 381,77 382,78 383,79 384,78 385,79 386,80 387,79 388,80 389,79 390,78 391,77 392,78 393,77 394,76 395,75 396,74 397,75 398,74 399,75 400,200 " style="fill:rgb(23,79,126);stroke:rgb(0,0,26)"></polygon><polygon points="0,200 0,100 1,99 2,98 3,97 4,98 5,99 6,98 7,97 8,96 9,95 10,96 11,95 12,96 13,95 14,94 15,93 16,92 17,93 18,92 19,91 20,92 21,91 22,90 23,91 24,92 25,93 26,92 27,91 28,90 29,91 30,90 31,91 32,90 33,91 34,92 35,93 36,94 37,93 38,94 39,93 40,94 41,95 42,96 43,95 44,96 45,95 46,94 47,95 48,94 49,93 50,94 51,93 52,94 53,95 54,96 55,97 56,96 57,95 58,96 59,95 60,96 61,97 62,98 63,97 64,96 65,97 66,98 67,99 68,98 69,97 70,98 71,99 72,98 73,97 74,96 75,97 76,98 77,97 78,96 79,97 80,98 81,97 82,96 83,97 84,96 85,97 86,98 87,99 88,98 89,97 90,98 91,99 92,100 93,101 94,100 95,99 96,100 97,99 98,100 99,101 100,102 101,101 102,102 103,103 104,104 105,103 106,102 107,101 108,100 109,99 110,98 111,97 112,98 113,99 114,100 115,101 116,100 117,101 118,100 119,99 120,100 121,99 122,100 123,99 124,98 125,99 126,98 127,97 128,98 129,97 130,96 131,95 132,94 133,95 134,96 135,95 136,94 137,93 138,94 139,95 140,94 141,93 142,94 143,93 144,92 145,93 146,94 147,95 148,96 149,95 150,94 151,95 152,96 153,95 154,96 155,97 156,96 157,97 158,98 159,97 160,98 161,97 162,96 163,97 164,98 165,99 166,100 167,99 168,98 169,97 170,96 171,95 172,96 173,97 174,96 175,97 176,96 177,97 178,96 179,97 180,98 181,99 182,100 183,101 184,100 185,99 186,100 187,99 188,98 189,97 190,98 191,99 192,98 193,97 194,98 195,99 196,100 197,99 198,98 199,99 200,98 201,97 202,96 203,97 204,96 205,95 206,96 207,97 208,98 209,97 210,96 211,95 212,94 213,93 214,94 215,93 216,94 217,93 218,94 219,93 220,92 221,93 222,92 223,93 224,92 225,93 226,92 227,91 228,92 229,93 230,94 231,95 232,94 233,95 234,96 235,97 236,96 237,97 238,98 239,97 240,98 241,97 242,96 243,97 244,98 245,99 246,100 247,99 248,98 249,99 250,98 251,97 252,98 253,97 254,96 255,95 256,96 257,95 258,96 259,97 260,98 261,97 262,96 263,97 264,96 265,97 266,98 267,99 268,100 269,99 270,98 271,99 272,100 273,101 274,102 275,101 276,100 277,99 278,100 279,99 280,98 281,97 282,98 283,97 284,96 285,95 286,96 287,97 288,96 289,97 290,98 291,97 292,98 293,97 294,98 295,99 296,100 297,101 298,102 299,103 300,104 301,103 302,102 303,101 304,102 305,101 306,100 307,101 308,102 309,101 310,100 311,101 312,102 313,103 314,102 315,101 316,102 317,101 318,100 319,101 320,102 321,101 322,102 323,103 324,102 325,101 326,102 327,103 328,102 329,101 330,100 331,99 332,100 333,99 334,98 335,97 336,98 337,97 338,98 339,99 340,100 341,99 342,98 343,99 344,100 345,101 346,100 347,101 348,100 349,99 350,100 351,99 352,100 353,99 354,100 355,101 356,100 357,99 358,100 359,99 360,100 361,99 362,98 363,99 364,98 365,97 366,98 367,97 368,96 369,97 370,96 371,95 372,96 373,95 374,96 375,95 376,94 377,93 378,92 379,91 380,92 381,91 382,92 383,91 384,92 385,93 386,94 387,95 388,96 389,95 390,96 391,97 392,96 393,97 394,98 395,97 396,96 397,95 398,94 399,93 400,200 " style="fill:rgb(153,220,255);stroke:rgb(53,120,155)"></polygon><polygon points="0,200 0,100 1,101 2,102 3,101 4,100 5,99 6,100 7,101 8,100 9,101 10,100 11,101 12,102 13,101 14,102 15,103 16,104 17,105 18,104 19,103 20,102 21,103 22,104 23,105 24,106 25,105 26,104 27,103 28,102 29,103 30,104 31,103 32,104 33,103 34,102 35,103 36,104 37,103 38,102 39,103 40,104 41,105 42,106 43,107 44,106 45,107 46,106 47,105 48,104 49,103 50,102 51,101 52,100 53,99 54,98 55,99 56,98 57,97 58,96 59,95 60,94 61,95 62,96 63,97 64,96 65,95 66,94 67,93 68,94 69,93 70,92 71,93 72,92 73,93 74,94 75,93 76,92 77,91 78,90 79,89 80,90 81,89 82,90 83,89 84,88 85,87 86,86 87,85 88,86 89,87 90,88 91,89 92,90 93,91 94,90 95,89 96,90 97,89 98,88 99,89 100,88 101,89 102,88 103,87 104,88 105,87 106,86 107,85 108,86 109,87 110,88 111,87 112,86 113,85 114,86 115,85 116,86 117,87 118,86 119,85 120,84 121,85 122,84 123,85 124,84 125,83 126,84 127,85 128,86 129,85 130,84 131,85 132,86 133,85 134,84 135,85 136,86 137,85 138,86 139,87 140,86 141,87 142,86 143,87 144,86 145,87 146,86 147,87 148,86 149,85 150,84 151,83 152,82 153,83 154,82 155,83 156,84 157,83 158,84 159,83 160,82 161,81 162,80 163,79 164,78 165,77 166,76 167,75 168,76 169,77 170,78 171,79 172,80 173,79 174,78 175,79 176,80 177,81 178,80 179,79 180,78 181,77 182,78 183,77 184,76 185,77 186,78 187,77 188,76 189,77 190,76 191,75 192,74 193,75 194,76 195,75 196,74 197,75 198,76 199,77 200,78 201,79 202,78 203,77 204,78 205,79 206,80 207,79 208,80 209,79 210,80 211,81 212,82 213,83 214,82 215,81 216,80 217,81 218,82 219,81 220,80 221,79 222,78 223,77 224,78 225,77 226,76 227,77 228,78 229,79 230,78 231,79 232,80 233,79 234,78 235,77 236,78 237,79 238,80 239,81 240,80 241,81 242,80 243,79 244,80 245,79 246,80 247,81 248,80 249,79 250,80 251,81 252,80 253,79 254,78 255,77 256,78 257,79 258,80 259,81 260,82 261,83 262,84 263,83 264,84 265,83 266,82 267,81 268,82 269,83 270,82 271,83 272,82 273,83 274,84 275,83 276,84 277,85 278,84 279,83 280,84 281,85 282,86 283,87 284,86 285,85 286,84 287,85 288,84 289,85 290,84 291,83 292,84 293,85 294,84 295,83 296,82 297,81 298,82 299,83 300,84 301,83 302,82 303,81 304,82 305,81 306,80 307,79 308,78 309,77 310,78 311,79 312,78 313,77 314,76 315,75 316,74 317,75 318,76 319,77 320,78 321,79 322,78 323,79 324,78 325,77 326,76 327,77 328,78 329,77 330,76 331,77 332,76 333,77 334,78 335,77 336,76 337,75 338,74 339,73 340,72 341,71 342,72 343,71 344,72 345,73 346,72 347,71 348,72 349,71 350,70 351,69 352,68 353,69 354,68 355,67 356,68 357,67 358,68 359,69 360,68 361,69 362,68 363,67 364,66 365,67 366,66 367,65 368,64 369,65 370,64 371,63 372,64 373,63 374,64 375,63 376,62 377,63 378,64 379,63 380,62 381,61 382,62 383,61 384,62 385,63 386,62 387,61 388,60 389,61 390,60 391,59 392,58 393,57 394,56 395,57 396,58 397,57 398,58 399,57 400,200 " style="fill:rgb(150,61,6);stroke:rgb(50,0,0)"></polygon><polygon points="0,200 0,100 1,101 2,100 3,99 4,100 5,101 6,100 7,101 8,102 9,101 10,102 11,103 12,104 13,103 14,104 15,105 16,106 17,105 18,106 19,105 20,106 21,107 22,106 23,107 24,106 25,105 26,106 27,107 28,106 29,107 30,106 31,105 32,104 33,103 34,102 35,101 36,102 37,101 38,100 39,99 40,98 41,97 42,98 43,99 44,98 45,99 46,100 47,99 48,98 49,99 50,98 51,97 52,96 53,97 54,96 55,95 56,94 57,93 58,92 59,93 60,92 61,93 62,94 63,95 64,96 65,95 66,94 67,93 68,92 69,91 70,92 71,91 72,92 73,93 74,94 75,95 76,96 77,97 78,96 79,95 80,94 81,95 82,94 83,93 84,92 85,93 86,92 87,91 88,90 89,89 90,90 91,91 92,90 93,89 94,88 95,89 96,88 97,89 98,90 99,89 100,88 101,87 102,86 103,85 104,84 105,85 106,86 107,85 108,84 109,85 110,84 111,83 112,82 113,83 114,82 115,83 116,84 117,85 118,84 119,83 120,84 121,83 122,82 123,81 124,82 125,81 126,80 127,81 128,82 129,83 130,82 131,83 132,84 133,83 134,84 135,83 136,82 137,81 138,82 139,81 140,80 141,79 142,80 143,79 144,78 145,77 146,76 147,77 148,76 149,77 150,76 151,75 152,74 153,73 154,72 155,73 156,74 157,75 158,74 159,73 160,72 161,71 162,72 163,71 164,70 165,71 166,72 167,73 168,72 169,71 170,70 171,71 172,70 173,71 174,70 175,71 176,72 177,71 178,70 179,69 180,68 181,67 182,68 183,69 184,70 185,71 186,70 187,69 188,68 189,69 190,68 191,67 192,66 193,65 194,64 195,65 196,64 197,63 198,62 199,63 200,62 201,63 202,64 203,63 204,62 205,63 206,64 207,65 208,66 209,67 210,68 211,67 212,66 213,67 214,68 215,67 216,66 217,65 218,64 219,65 220,66 221,67 222,66 223,67 224,66 225,65 226,64 227,63 228,64 229,65 230,64 231,63 232,64 233,63 234,62 235,61 236,60 237,61 238,62 239,61 240,62 241,61 242,62 243,63 244,64 245,63 246,62 247,63 248,62 249,63 250,62 251,63 252,64 253,65 254,66 255,65 256,64 257,63 258,62 259,61 260,62 261,61 262,60 263,61 264,62 265,63 266,62 267,61 268,60 269,59 270,58 271,57 272,56 273,55 274,54 275,55 276,54 277,55 278,54 279,53 280,52 281,53 282,54 283,55 284,54 285,55 286,54 287,55 288,54 289,55 290,54 291,53 292,52 293,53 294,54 295,55 296,54 297,55 298,56 299,55 300,56 301,55 302,54 303,55 304,56 305,57 306,56 307,57 308,56 309,57 310,58 311,57 312,56 313,55 314,54 315,55 316,54 317,53 318,54 319,55 320,56 321,57 322,58 323,57 324,56 325,57 326,58 327,57 328,56 329,57 330,58 331,57 332,56 333,57 334,58 335,59 336,60 337,61 338,62 339,63 340,64 341,65 342,66 343,67 344,66 345,65 346,66 347,67 348,66 349,67 350,66 351,67 352,66 353,65 354,66 355,65 356,66 357,67 358,66 359,65 360,66 361,67 362,66 363,65 364,66 365,65 366,66 367,67 368,68 369,69 370,70 371,69 372,70 373,71 374,72 375,73 376,74 377,73 378,72 379,71 380,72 381,71 382,70 383,71 384,72 385,71 386,70 387,71 388,70 389,69 390,68 391,69 392,70 393,71 394,70 395,71 396,72 397,71 398,70 399,71 400,200 " style="fill:rgb(223,170,255);stroke:rgb(123,70,155)"></polygon><polygon points="0,200 0,100 1,99 2,98 3,97 4,98 5,97 6,96 7,97 8,96 9,95 10,96 11,95 12,96 13,97 14,96 15,97 16,96 17,97 18,98 19,99 20,98 21,99 22,98 23,97 24,98 25,99 26,98 27,97 28,98 29,99 30,100 31,101 32,100 33,99 34,98 35,99 36,98 37,97 38,98 39,97 40,96 41,95 42,94 43,93 44,94 45,95 46,96 47,95 48,96 49,97 50,96 51,97 52,96 53,95 54,96 55,95 56,96 57,95 58,94 59,95 60,96 61,95 62,96 63,95 64,96 65,97 66,98 67,97 68,96 69,95 70,96 71,97 72,98 73,97 74,98 75,97 76,98 77,97 78,96 79,95 80,94 81,95 82,96 83,97 84,96 85,97 86,96 87,97 88,98 89,97 90,98 91,97 92,98 93,99 94,98 95,99 96,98 97,97 98,96 99,97 100,96 101,95 102,94 103,95 104,94 105,95 106,94 107,93 108,94 109,93 110,92 111,91 112,92 113,93 114,92 115,91 116,92 117,93 118,92 119,93 120,94 121,95 122,96 123,97 124,96 125,95 126,94 127,93 128,94 129,95 130,96 131,97 132,98 133,99 134,98 135,97 136,96 137,95 138,96 139,95 140,94 141,93 142,92 143,91 144,92 145,93 146,94 147,95 148,94 149,93 150,92 151,91 152,90 153,91 154,90 155,89 156,88 157,89 158,88 159,89 160,90 161,91 162,92 163,93 164,94 165,95 166,94 167,93 168,94 169,95 170,96 171,97 172,96 173,97 174,96 175,95 176,94 177,93 178,94 179,93 180,92 181,91 182,90 183,91 184,92 185,91 186,90 187,89 188,90 189,89 190,88 191,87 192,88 193,89 194,90 195,89 196,90 197,91 198,92 199,91 200,90 201,89 202,90 203,89 204,90 205,89 206,88 207,89 208,88 209,89 210,90 211,89 212,88 213,87 214,88 215,87 216,86 217,85 218,84 219,83 220,82 221,81 222,82 223,81 224,82 225,83 226,84 227,83 228,84 229,83 230,84 231,85 232,86 233,85 234,86 235,87 236,88 237,87 238,88 239,87 240,88 241,87 242,88 243,89 244,90 245,91 246,92 247,91 248,92 249,93 250,92 251,91 252,90 253,89 254,90 255,89 256,90 257,91 258,92 259,93 260,94 261,95 262,94 263,95 264,94 265,93 266,94 267,93 268,92 269,91 270,90 271,91 272,92 273,91 274,92 275,93 276,94 277,93 278,92 279,93 280,94 281,93 282,92 283,93 284,94 285,95 286,94 287,95 288,94 289,93 290,92 291,91 292,90 293,91 294,92 295,91 296,90 297,89 298,88 299,87 300,86 301,87 302,88 303,89 304,88 305,89 306,88 307,87 308,86 309,87 310,86 311,87 312,88 313,89 314,90 315,89 316,90 317,91 318,90 319,91 320,92 321,91 322,90 323,89 324,90 325,91 326,90 327,91 328,90 329,89 330,90 331,89 332,88 333,89 334,88 335,87 336,88 337,89 338,90 339,89 340,90 341,89 342,90 343,89 344,90 345,91 346,90 347,91 348,92 349,91 350,92 351,91 352,90 353,91 354,92 355,93 356,92 357,91 358,90 359,89 360,88 361,89 362,88 363,87 364,86 365,87 366,86 367,85 368,84 369,85 370,84 371,85 372,84 373,85 374,86 375,85 376,86 377,85 378,86 379,85 380,84 381,85 382,86 383,87 384,86 385,87 386,88 387,89 388,88 389,87 390,86 391,85 392,86 393,85 394,86 395,87 396,88 397,89 398,88 399,87 400,200 " style="fill:rgb(165,166,32);stroke:rgb(65,66,0)"></polygon><polygon points="0,200 0,100 1,101 2,102 3,101 4,100 5,101 6,100 7,99 8,98 9,99 10,98 11,99 12,98 13,97 14,98 15,99 16,100 17,99 18,98 19,97 20,98 21,99 22,100 23,101 24,102 25,101 26,102 27,101 28,100 29,101 30,102 31,101 32,102 33,103 34,102 35,103 36,104 37,105 38,106 39,107 40,106 41,107 42,106 43,107 44,106 45,105 46,106 47,107 48,106 49,105 50,104 51,105 52,104 53,105 54,104 55,103 56,102 57,101 58,102 59,101 60,102 61,103 62,102 63,101 64,102 65,103 66,104 67,103 68,104 69,105 70,106 71,105 72,106 73,105 74,104 75,105 76,104 77,103 78,102 79,103 80,102 81,103 82,102 83,101 84,100 85,101 86,102 87,101 88,102 89,103 90,102 91,101 92,102 93,103 94,102 95,101 96,100 97,99 98,98 99,99 100,98 101,99 102,98 103,97 104,98 105,97 106,96 107,95 108,96 109,95 110,96 111,95 112,96 113,97 114,98 115,99 116,98 117,99 118,100 119,101 120,100 121,99 122,98 123,97 124,96 125,95 126,94 127,95 128,94 129,95 130,94 131,95 132,96 133,97 134,96 135,97 136,96 137,97 138,96 139,95 140,96 141,97 142,96 143,95 144,96 145,97 146,96 147,97 148,96 149,95 150,94 151,95 152,96 153,97 154,98 155,99 156,98 157,97 158,96 159,97 160,98 161,97 162,96 163,95 164,94 165,93 166,94 167,95 168,94 169,95 170,96 171,97 172,96 173,95 174,96 175,97 176,98 177,97 178,98 179,99 180,98 181,97 182,96 183,97 184,98 185,97 186,98 187,97 188,96 189,97 190,98 191,97 192,98 193,97 194,96 195,95 196,94 197,95 198,94 199,95 200,96 201,95 202,96 203,95 204,96 205,97 206,98 207,99 208,98 209,99 210,98 211,99 212,100 213,99 214,98 215,99 216,100 217,99 218,100 219,99 220,98 221,97 222,98 223,97 224,96 225,97 226,98 227,99 228,100 229,99 230,100 231,99 232,98 233,97 234,96 235,95 236,94 237,93 238,94 239,93 240,92 241,93 242,92 243,91 244,90 245,91 246,92 247,91 248,92 249,91 250,92 251,93 252,92 253,91 254,90 255,91 256,90 257,91 258,90 259,91 260,92 261,91 262,92 263,91 264,92 265,91 266,90 267,91 268,90 269,89 270,90 271,89 272,90 273,91 274,90 275,89 276,90 277,89 278,90 279,89 280,90 281,89 282,90 283,91 284,92 285,93 286,92 287,93 288,92 289,93 290,94 291,93 292,92 293,93 294,92 295,93 296,94 297,93 298,94 299,95 300,94 301,95 302,96 303,95 304,94 305,93 306,92 307,93 308,92 309,91 310,90 311,91 312,90 313,91 314,90 315,91 316,90 317,91 318,92 319,93 320,92 321,91 322,90 323,91 324,90 325,91 326,90 327,89 328,90 329,91 330,92 331,93 332,92 333,93 334,92 335,91 336,92 337,91 338,90 339,89 340,88 341,87 342,88 343,87 344,88 345,89 346,90 347,91 348,92 349,93 350,94 351,95 352,94 353,95 354,96 355,97 356,98 357,97 358,98 359,97 360,98 361,97 362,98 363,97 364,96 365,95 366,94 367,93 368,94 369,95 370,96 371,95 372,94 373,95 374,96 375,95 376,94 377,93 378,92 379,91 380,92 381,91 382,92 383,91 384,92 385,91 386,92 387,91 388,90 389,89 390,90 391,91 392,92 393,93 394,94 395,95 396,96 397,95 398,96 399,97 400,200 " style="fill:rgb(212,172,6);stroke:rgb(112,72,0)"></polygon><polygon points="0,200 0,100 1,99 2,98 3,97 4,98 5,99 6,98 7,97 8,98 9,99 10,100 11,99 12,100 13,101 14,100 15,101 16,102 17,101 18,102 19,101 20,100 21,99 22,100 23,101 24,102 25,103 26,102 27,103 28,104 29,105 30,104 31,103 32,102 33,101 34,100 35,101 36,102 37,103 38,104 39,103 40,104 41,105 42,104 43,105 44,104 45,105 46,104 47,105 48,104 49,105 50,106 51,105 52,106 53,107 54,108 55,109 56,108 57,107 58,108 59,109 60,110 61,109 62,108 63,109 64,110 65,109 66,108 67,109 68,108 69,109 70,110 71,109 72,110 73,109 74,110 75,111 76,110 77,109 78,108 79,107 80,108 81,107 82,106 83,107 84,108 85,107 86,106 87,105 88,106 89,105 90,104 91,103 92,104 93,103 94,102 95,101 96,102 97,103 98,102 99,103 100,102 101,103 102,102 103,103 104,102 105,103 106,104 107,103 108,102 109,103 110,104 111,103 112,102 113,101 114,100 115,101 116,102 117,103 118,102 119,103 120,104 121,103 122,102 123,103 124,104 125,103 126,104 127,105 128,104 129,105 130,106 131,105 132,104 133,103 134,102 135,101 136,100 137,99 138,100 139,99 140,98 141,99 142,98 143,99 144,98 145,97 146,98 147,97 148,98 149,99 150,98 151,99 152,100 153,101 154,100 155,99 156,100 157,99 158,98 159,97 160,96 161,95 162,94 163,93 164,94 165,93 166,92 167,91 168,90 169,89 170,90 171,91 172,90 173,91 174,92 175,93 176,92 177,91 178,90 179,89 180,88 181,87 182,86 183,87 184,88 185,89 186,88 187,89 188,88 189,87 190,88 191,87 192,86 193,87 194,88 195,89 196,90 197,91 198,90 199,89 200,88 201,89 202,90 203,91 204,92 205,91 206,90 207,89 208,88 209,87 210,86 211,85 212,86 213,85 214,84 215,83 216,84 217,83 218,84 219,85 220,86 221,87 222,88 223,87 224,88 225,89 226,90 227,89 228,88 229,87 230,88 231,89 232,88 233,89 234,90 235,89 236,88 237,87 238,86 239,87 240,88 241,87 242,88 243,87 244,86 245,87 246,88 247,87 248,86 249,87 250,88 251,89 252,88 253,87 254,86 255,85 256,86 257,85 258,86 259,85 260,86 261,85 262,84 263,85 264,86 265,87 266,86 267,87 268,88 269,87 270,86 271,85 272,84 273,85 274,86 275,87 276,88 277,89 278,88 279,89 280,88 281,87 282,86 283,87 284,88 285,89 286,88 287,87 288,86 289,85 290,86 291,87 292,88 293,89 294,90 295,91 296,90 297,89 298,90 299,89 300,90 301,89 302,88 303,87 304,88 305,87 306,88 307,87 308,86 309,85 310,86 311,85 312,86 313,85 314,86 315,87 316,88 317,87 318,86 319,87 320,88 321,89 322,90 323,91 324,90 325,91 326,90 327,91 328,92 329,93 330,94 331,93 332,92 333,93 334,92 335,93 336,92 337,93 338,92 339,93 340,92 341,93 342,92 343,93 344,94 345,93 346,94 347,93 348,92 349,91 350,92 351,91 352,92 353,93 354,94 355,95 356,94 357,95 358,96 359,97 360,96 361,95 362,94 363,95 364,94 365,95 366,96 367,97 368,98 369,99 370,98 371,97 372,96 373,95 374,94 375,95 376,94 377,93 378,94 379,93 380,92 381,91 382,90 383,91 384,90 385,89 386,88 387,87 388,86 389,85 390,86 391,85 392,84 393,85 394,84 395,85 396,86 397,85 398,84 399,83 400,200 " style="fill:rgb(233,211,180);stroke:rgb(133,111,80)"></polygon><polygon points="0,200 0,100 1,99 2,100 3,99 4,98 5,99 6,98 7,99 8,98 9,99 10,98 11,97 12,96 13,97 14,98 15,99 16,100 17,101 18,102 19,101 20,100 21,99 22,100 23,101 24,100 25,101 26,100 27,101 28,102 29,101 30,102 31,103 32,102 33,101 34,102 35,101 36,102 37,103 38,104 39,105 40,104 41,103 42,102 43,101 44,100 45,99 46,100 47,101 48,100 49,99 50,98 51,97 52,96 53,95 54,94 55,93 56,94 57,93 58,94 59,95 60,96 61,95 62,96 63,95 64,94 65,93 66,94 67,93 68,92 69,93 70,92 71,91 72,92 73,93 74,92 75,91 76,92 77,91 78,92 79,91 80,92 81,91 82,90 83,91 84,90 85,91 86,92 87,93 88,94 89,93 90,92 91,91 92,90 93,91 94,90 95,91 96,90 97,91 98,90 99,91 100,92 101,91 102,90 103,91 104,90 105,91 106,90 107,91 108,92 109,91 110,90 111,91 112,90 113,91 114,92 115,93 116,92 117,91 118,90 119,89 120,90 121,91 122,92 123,91 124,90 125,91 126,90 127,89 128,90 129,89 130,88 131,87 132,86 133,87 134,86 135,87 136,88 137,89 138,88 139,87 140,88 141,87 142,86 143,87 144,86 145,85 146,86 147,85 148,86 149,87 150,88 151,89 152,90 153,89 154,90 155,91 156,92 157,93 158,94 159,95 160,96 161,97 162,96 163,97 164,96 165,95 166,96 167,95 168,94 169,95 170,96 171,97 172,98 173,97 174,96 175,95 176,94 177,95 178,96 179,97 180,98 181,97 182,96 183,97 184,96 185,95 186,94 187,95 188,96 189,95 190,94 191,95 192,96 193,95 194,96 195,95 196,96 197,97 198,98 199,97 200,96 201,95 202,94 203,93 204,94 205,93 206,92 207,91 208,90 209,91 210,90 211,91 212,90 213,89 214,88 215,89 216,88 217,87 218,86 219,85 220,84 221,83 222,84 223,85 224,84 225,83 226,82 227,81 228,80 229,81 230,80 231,79 232,80 233,79 234,80 235,79 236,78 237,79 238,78 239,77 240,76 241,75 242,76 243,75 244,76 245,77 246,76 247,77 248,78 249,79 250,80 251,79 252,78 253,79 254,80 255,79 256,80 257,79 258,78 259,79 260,78 261,79 262,80 263,79 264,78 265,79 266,78 267,77 268,78 269,77 270,78 271,79 272,80 273,79 274,80 275,79 276,80 277,79 278,78 279,77 280,76 281,75 282,76 283,75 284,74 285,73 286,72 287,71 288,72 289,71 290,70 291,71 292,70 293,71 294,72 295,73 296,72 297,73 298,72 299,71 300,70 301,71 302,70 303,71 304,70 305,71 306,72 307,71 308,72 309,71 310,72 311,71 312,70 313,69 314,68 315,67 316,66 317,65 318,66 319,67 320,68 321,67 322,68 323,67 324,68 325,67 326,66 327,65 328,66 329,65 330,64 331,63 332,64 333,65 334,66 335,65 336,66 337,67 338,66 339,67 340,68 341,67 342,68 343,69 344,68 345,69 346,70 347,71 348,72 349,73 350,74 351,73 352,74 353,75 354,76 355,75 356,74 357,73 358,72 359,73 360,74 361,73 362,72 363,73 364,74 365,75 366,74 367,75 368,74 369,73 370,72 371,71 372,72 373,73 374,72 375,71 376,70 377,71 378,70 379,71 380,72 381,73 382,74 383,75 384,74 385,73 386,72 387,73 388,72 389,73 390,72 391,71 392,72 393,71 394,70 395,69 396,70 397,71 398,70 399,71 400,200 " style="fill:rgb(32,54,99);stroke:rgb(0,0,0)"></polygon><polygon points="0,200 0,100 1,99 2,98 3,97 4,98 5,97 6,96 7,95 8,96 9,95 10,96 11,97 12,98 13,99 14,98 15,99 16,98 17,99 18,98 19,97 20,96 21,97 22,98 23,99 24,100 25,99 26,98 27,97 28,96 29,95 30,94 31,93 32,92 33,93 34,92 35,91 36,90 37,91 38,92 39,91 40,90 41,91 42,90 43,89 44,90 45,89 46,90 47,91 48,90 49,91 50,90 51,89 52,88 53,87 54,86 55,87 56,88 57,87 58,86 59,85 60,84 61,83 62,84 63,85 64,86 65,87 66,86 67,87 68,86 69,87 70,88 71,89 72,88 73,87 74,86 75,87 76,86 77,85 78,86 79,87 80,88 81,87 82,86 83,87 84,88 85,89 86,88 87,87 88,86 89,85 90,84 91,85 92,84 93,85 94,86 95,85 96,86 97,87 98,86 99,85 100,86 101,85 102,86 103,87 104,88 105,87 106,88 107,89 108,88 109,87 110,88 111,87 112,88 113,89 114,88 115,89 116,88 117,87 118,86 119,87 120,88 121,89 122,90 123,91 124,90 125,89 126,90 127,89 128,90 129,91 130,90 131,91 132,90 133,89 134,90 135,91 136,90 137,89 138,90 139,91 140,90 141,89 142,90 143,89 144,88 145,87 146,86 147,85 148,86 149,85 150,84 151,83 152,82 153,81 154,82 155,81 156,80 157,81 158,82 159,83 160,84 161,85 162,86 163,87 164,88 165,89 166,90 167,91 168,92 169,91 170,90 171,91 172,92 173,91 174,92 175,93 176,92 177,91 178,92 179,91 180,92 181,91 182,90 183,91 184,90 185,91 186,90 187,91 188,90 189,91 190,92 191,93 192,92 193,91 194,90 195,91 196,92 197,91 198,92 199,91 200,92 201,91 202,92 203,93 204,94 205,95 206,96 207,95 208,96 209,95 210,94 211,95 212,94 213,93 214,94 215,95 216,94 217,95 218,96 219,97 220,98 221,97 222,96 223,97 224,98 225,99 226,100 227,101 228,102 229,103 230,102 231,103 232,104 233,105 234,104 235,105 236,104 237,105 238,104 239,105 240,104 241,103 242,102 243,101 244,100 245,99 246,98 247,99 248,98 249,97 250,98 251,99 252,98 253,97 254,98 255,97 256,96 257,95 258,94 259,95 260,96 261,97 262,98 263,97 264,98 265,99 266,98 267,97 268,98 269,99 270,100 271,101 272,102 273,101 274,102 275,101 276,102 277,103 278,104 279,105 280,104 281,103 282,102 283,101 284,100 285,99 286,98 287,99 288,100 289,99 290,98 291,99 292,100 293,99 294,98 295,99 296,100 297,99 298,100 299,101 300,102 301,101 302,102 303,103 304,102 305,103 306,104 307,105 308,106 309,105 310,104 311,105 312,104 313,103 314,102 315,103 316,104 317,105 318,106 319,105 320,106 321,105 322,104 323,103 324,102 325,101 326,100 327,99 328,98 329,97 330,98 331,99 332,98 333,99 334,98 335,99 336,98 337,97 338,98 339,99 340,98 341,99 342,98 343,97 344,98 345,99 346,98 347,99 348,100 349,99 350,100 351,101 352,100 353,101 354,100 355,101 356,102 357,103 358,104 359,103 360,104 361,105 362,104 363,103 364,102 365,103 366,102 367,103 368,102 369,103 370,104 371,105 372,106 373,105 374,106 375,107 376,106 377,107 378,108 379,107 380,108 381,107 382,108 383,107 384,106 385,105 386,106 387,105 388,104 389,105 390,106 391,105 392,104 393,105 394,104 395,103 396,102 397,103 398,102 399,101 400,200 " style="fill:rgb(208,152,106);stroke:rgb(108,52,6)"></polygon></svg>